HIERARCHY
ROOT Pelvis
{
	OFFSET 0.000000 0.000000 0.000000
	CHANNELS 6 Xposition Yposition Zposition Xrotation Yrotation Zrotation
	JOINT LeftUpLeg_virtual
	{
		OFFSET 0.000000 0.000000 0.000000
		CHANNELS 3 Xrotation Yrotation Zrotation
		JOINT LeftUpLeg
		{
			OFFSET 8.479700 -4.795502 -0.379100
			CHANNELS 3 Xrotation Yrotation Zrotation
			JOINT LeftLeg
			{
				OFFSET 0.024144 -32.555107 0.112900
				CHANNELS 3 Xrotation Yrotation Zrotation
				JOINT LeftFoot
				{
					OFFSET -0.024144 -32.638630 -3.012600
					CHANNELS 3 Xrotation Yrotation Zrotation
					JOINT LeftToeBase
					{
						OFFSET 0.970200 -13.225400 11.864200
						CHANNELS 3 Xrotation Yrotation Zrotation
						End Site
						{
							OFFSET 0 0 0
						}
					}
				}
			}
		}
	}
	JOINT RightUpLeg_virtual
	{
		OFFSET 0.000000 0.000000 0.000000
		CHANNELS 3 Xrotation Yrotation Zrotation
		JOINT RightUpLeg
		{
			OFFSET -8.479700 -4.795502 -0.379100
			CHANNELS 3 Xrotation Yrotation Zrotation
			JOINT RightLeg
			{
				OFFSET -0.023144 -32.555092 0.112900
				CHANNELS 3 Xrotation Yrotation Zrotation
				JOINT RightFoot
				{
					OFFSET 0.023144 -32.638641 -3.012700
					CHANNELS 3 Xrotation Yrotation Zrotation
					JOINT RightToeBase
					{
						OFFSET -0.970200 -13.225400 11.864200
						CHANNELS 3 Xrotation Yrotation Zrotation
						End Site
						{
							OFFSET 0 0 0
						}
					}
				}
			}
		}
	}
	JOINT Hips_virtual
	{
		OFFSET 0.000000 0.000000 0.000000
		CHANNELS 3 Xrotation Yrotation Zrotation
		JOINT Hips
		{
			OFFSET -0.000000 -0.000000 -0.000000
			CHANNELS 3 Xrotation Yrotation Zrotation
			JOINT Spine
			{
				OFFSET 0.000000 7.722000 1.166200
				CHANNELS 3 Xrotation Yrotation Zrotation
				JOINT Spine1
				{
					OFFSET 0.000000 12.024101 0.248800
					CHANNELS 3 Xrotation Yrotation Zrotation
					JOINT Spine2
					{
						OFFSET 0.000000 11.502998 -0.491200
						CHANNELS 3 Xrotation Yrotation Zrotation
						JOINT Neck_virtual
						{
							OFFSET 0.000000 0.000000 0.000000
							CHANNELS 3 Xrotation Yrotation Zrotation
							JOINT Neck
							{
								OFFSET 0.000000 18.430702 -3.123100
								CHANNELS 3 Xrotation Yrotation Zrotation
								JOINT Head
								{
									OFFSET 0.000000 9.051102 1.034000
									CHANNELS 3 Xrotation Yrotation Zrotation
									End Site
									{
										OFFSET 0 0 0
									}
								}
							}
						}
						JOINT LeftShoulder_virtual
						{
							OFFSET 0.000000 0.000000 0.000000
							CHANNELS 3 Xrotation Yrotation Zrotation
							JOINT LeftShoulder
							{
								OFFSET 6.197800 13.665199 -4.064700
								CHANNELS 3 Xrotation Yrotation Zrotation
								JOINT LeftArm
								{
									OFFSET 7.778100 -0.187103 -1.709300
									CHANNELS 3 Xrotation Yrotation Zrotation
									JOINT LeftForeArm
									{
										OFFSET 22.049376 0.000000 0.000000
										CHANNELS 3 Xrotation Yrotation Zrotation
										JOINT LeftHand
										{
											OFFSET 23.009392 0.000000 0.000000
											CHANNELS 3 Xrotation Yrotation Zrotation
											End Site
											{
												OFFSET 0 0 0
											}
										}
									}
								}
							}
						}
						JOINT RightShoulder_virtual
						{
							OFFSET 0.000000 0.000000 0.000000
							CHANNELS 3 Xrotation Yrotation Zrotation
							JOINT RightShoulder
							{
								OFFSET -6.197800 13.665199 -4.064700
								CHANNELS 3 Xrotation Yrotation Zrotation
								JOINT RightArm
								{
									OFFSET -7.778100 -0.187103 -1.709300
									CHANNELS 3 Xrotation Yrotation Zrotation
									JOINT RightForeArm
									{
										OFFSET -22.049376 0.000000 0.000000
										CHANNELS 3 Xrotation Yrotation Zrotation
										JOINT RightHand
										{
											OFFSET -23.009392 0.000000 0.000000
											CHANNELS 3 Xrotation Yrotation Zrotation
											End Site
											{
												OFFSET 0 0 0
											}
										}
									}
								}
							}
						}
					}
				}
			}
		}
	}
}
MOTION
Frames: 13
Frame Time: 0.03333333
0.460211 81.901672 -0.765684 0.000000 0.000000 0.000000 2.912554 -28.989365 1.159790 -17.358159 18.227330 10.849518 16.415093 13.225066 -0.948708 -1.369201 -4.085627 -4.997468 0.000000 0.000000 0.000000 2.912554 -28.989365 1.159790 -8.098648 -1.527005 -9.108247 10.348906 9.503769 0.826210 -5.503977 -0.867053 7.453359 0.000000 0.000000 0.000000 2.912554 -28.989365 1.159790 0.000000 0.000002 0.000000 7.836173 -0.359608 -2.651417 1.099253 -0.880534 2.383668 0.000000 0.000000 0.000000 1.108682 -0.590407 2.446525 -3.841323 18.019004 -6.496514 0.000000 0.000000 0.000000 1.108682 -0.590407 2.446525 -0.055834 -8.757997 -0.067358 -55.250804 0.329422 -41.449379 11.606996 -65.826016 13.026201 0.000000 0.000000 0.000000 1.108682 -0.590407 2.446525 4.849285 7.760132 5.560458 -0.933510 -2.176871 61.845655 11.299288 18.943468 -3.987587 0.000000 0.000000 0.000000 
0.446862 81.900246 -0.753428 0.000000 0.000000 0.000000 2.996465 -29.000700 1.200942 -17.426215 18.214871 10.859119 16.428791 13.224389 -0.951783 -1.383615 -4.084790 -5.000657 0.000000 0.000000 0.000000 2.996465 -29.000700 1.200942 -8.167590 -1.527232 -9.097803 10.362645 9.510866 0.823952 -5.526155 -0.856744 7.441722 0.000000 0.000000 0.000000 2.996465 -29.000700 1.200942 0.000000 0.000000 0.000000 7.836178 -0.359616 -2.651258 1.099093 -0.876626 2.383000 0.000000 0.000000 0.000000 1.108490 -0.585946 2.445762 -3.844998 18.060120 -6.523143 0.000000 0.000000 0.000000 1.108490 -0.585946 2.445762 -0.070038 -8.744137 -0.066000 -54.884340 0.118804 -41.197618 11.633685 -65.908832 13.202054 0.000000 0.000000 0.000000 1.108490 -0.585946 2.445762 4.841094 7.792209 5.599182 -0.876151 -2.203281 61.799736 11.304725 18.977121 -3.997556 0.000000 0.000000 0.000000 
0.431026 81.897232 -0.740055 0.000000 0.000000 0.000000 3.094734 -29.005406 1.243948 -17.505869 18.171840 10.875536 16.444480 13.228325 -0.956710 -1.396165 -4.068923 -5.023339 0.000000 0.000000 0.000000 3.094734 -29.005406 1.243948 -8.266178 -1.535227 -9.093739 10.394923 9.541341 0.816287 -5.543694 -0.849501 7.436330 0.000000 0.000000 0.000000 3.094734 -29.005406 1.243948 0.000000 -0.000002 0.000000 7.836319 -0.356691 -2.651843 1.098787 -0.869318 2.381754 0.000000 0.000000 0.000000 1.110465 -0.579788 2.444748 -3.800850 18.130558 -6.587807 0.000000 0.000000 0.000000 1.110465 -0.579788 2.444748 -0.072281 -8.728852 -0.064793 -54.827561 0.180466 -41.050414 11.670591 -66.019099 13.220159 0.000000 0.000000 0.000000 1.110465 -0.579788 2.444748 4.839186 7.844302 5.594993 -0.848535 -2.241865 61.787291 11.331115 18.903921 -3.971969 0.000000 0.000000 0.000000 
0.415031 81.893311 -0.728073 0.000000 0.000000 0.000000 3.192169 -29.002476 1.284848 -17.593579 18.109707 10.888916 16.482109 13.265444 -0.968002 -1.417788 -4.055199 -5.037218 0.000000 0.000000 0.000000 3.192169 -29.002476 1.284848 -8.359410 -1.552228 -9.076738 10.429809 9.528759 0.811361 -5.569396 -0.847633 7.429590 0.000000 0.000000 0.000000 3.192169 -29.002476 1.284848 0.000000 -0.000001 0.000000 7.831496 -0.344492 -2.648022 1.104962 -0.859948 2.374746 0.000000 0.000000 0.000000 1.116792 -0.570575 2.437569 -3.760158 18.197033 -6.652758 0.000000 0.000000 0.000000 1.116792 -0.570575 2.437569 -0.091587 -8.709456 -0.063620 -54.824016 0.285201 -40.971525 11.705623 -66.122542 13.259040 0.000000 0.000000 0.000000 1.116792 -0.570575 2.437569 4.835598 7.900907 5.599399 -0.826515 -2.297774 61.813745 11.287215 18.781849 -4.000411 0.000000 0.000000 0.000000 
0.398722 81.888496 -0.717382 0.000000 0.000000 0.000000 3.290915 -28.988870 1.323470 -17.687050 18.023612 10.902003 16.528452 13.314511 -0.979948 -1.439245 -4.022642 -5.054475 0.000000 0.000000 0.000000 3.290915 -28.988870 1.323470 -8.462673 -1.574326 -9.058258 10.484518 9.542912 0.805604 -5.608051 -0.837827 7.411209 0.000000 0.000000 0.000000 3.290915 -28.988870 1.323470 0.000000 -0.000001 0.000000 7.819940 -0.327337 -2.642735 1.117935 -0.846396 2.364979 0.000000 0.000000 0.000000 1.129926 -0.558659 2.427738 -3.726530 18.293523 -6.716439 0.000000 0.000000 0.000000 1.129926 -0.558659 2.427738 -0.083033 -8.692240 -0.064191 -54.911873 0.413676 -40.899999 11.726498 -66.225815 13.255889 0.000000 0.000000 0.000000 1.129926 -0.558659 2.427738 4.830475 7.962081 5.611531 -0.812637 -2.366853 61.793213 11.316483 18.639487 -3.971516 0.000000 0.000000 0.000000 
0.381586 81.882469 -0.708065 0.000000 0.000000 0.000000 3.392541 -28.961737 1.360287 -17.791367 17.911164 10.915400 16.585851 13.346128 -0.994031 -1.464730 -3.997667 -5.071621 0.000000 0.000000 0.000000 3.392541 -28.961737 1.360287 -8.566977 -1.613401 -9.036828 10.537255 9.518926 0.781487 -5.636517 -0.846107 7.419757 0.000000 0.000000 0.000000 3.392541 -28.961737 1.360287 0.000000 0.000002 0.000000 7.812981 -0.305439 -2.636215 1.127845 -0.828369 2.358299 0.000000 0.000000 0.000000 1.140056 -0.541541 2.421100 -3.691164 18.384709 -6.815225 0.000000 0.000000 0.000000 1.140056 -0.541541 2.421100 -0.091047 -8.671647 -0.064417 -54.970469 0.539504 -40.835532 11.738927 -66.324634 13.258279 0.000000 0.000000 0.000000 1.140056 -0.541541 2.421100 4.825819 8.017238 5.622652 -0.780863 -2.427687 61.822822 11.254535 18.480209 -4.019927 0.000000 0.000000 0.000000 
0.362885 81.875755 -0.700062 0.000000 0.000000 0.000000 3.497611 -28.918543 1.395091 -17.903101 17.772572 10.929020 16.650324 13.402610 -1.007397 -1.487554 -3.957255 -5.092705 0.000000 0.000000 0.000000 3.497611 -28.918543 1.395091 -8.689699 -1.674884 -9.013803 10.616545 9.549811 0.781546 -5.685803 -0.829246 7.395397 0.000000 0.000000 0.000000 3.497611 -28.918543 1.395091 0.000000 -0.000002 0.000000 7.802286 -0.280707 -2.629722 1.138348 -0.807841 2.349022 0.000000 0.000000 0.000000 1.150805 -0.522313 2.411882 -3.650572 18.500624 -6.895998 0.000000 0.000000 0.000000 1.150805 -0.522313 2.411882 -0.084659 -8.656195 -0.065729 -55.018533 0.629092 -40.733220 11.744532 -66.427285 13.255473 0.000000 0.000000 0.000000 1.150805 -0.522313 2.411882 4.818682 8.090133 5.643137 -0.742720 -2.498033 61.818621 11.246321 18.307373 -4.026820 0.000000 0.000000 0.000000 
0.342211 81.867821 -0.693274 0.000000 0.000000 0.000000 3.605845 -28.856648 1.428348 -18.024569 17.613219 10.947021 16.722835 13.437112 -1.031846 -1.512766 -3.928924 -5.110289 0.000000 0.000000 0.000000 3.605845 -28.856648 1.428348 -8.811368 -1.764493 -8.996677 10.691560 9.558041 0.777247 -5.732665 -0.823164 7.379782 0.000000 0.000000 0.000000 3.605845 -28.856648 1.428348 0.000000 0.000002 0.000000 7.784595 -0.263109 -2.628621 1.150151 -0.790021 2.342570 0.000000 0.000000 0.000000 1.162760 -0.505189 2.405254 -3.589892 18.639929 -6.972632 0.000000 0.000000 0.000000 1.162760 -0.505189 2.405254 -0.078251 -8.608273 -0.065026 -55.165706 0.736282 -40.750859 11.701378 -66.490177 13.191238 0.000000 0.000000 0.000000 1.162760 -0.505189 2.405254 4.811219 8.208896 5.653095 -0.697929 -2.581734 61.829611 11.228437 18.104142 -4.038505 0.000000 0.000000 0.000000 
0.318885 81.858925 -0.687609 0.000000 0.000000 0.000000 3.716642 -28.773091 1.460889 -18.154231 17.439698 10.967528 16.802924 13.487668 -1.061156 -1.535998 -3.893986 -5.127951 0.000000 0.000000 0.000000 3.716642 -28.773091 1.460889 -8.942276 -1.869607 -8.979594 10.785800 9.564592 0.784187 -5.793381 -0.815023 7.349474 0.000000 0.000000 0.000000 3.716642 -28.773091 1.460889 0.000000 -0.000001 0.000000 7.753165 -0.248397 -2.624239 1.172170 -0.773998 2.335616 0.000000 0.000000 0.000000 1.184873 -0.489927 2.398011 -3.515181 18.850497 -7.083040 0.000000 0.000000 0.000000 1.184873 -0.489927 2.398011 -0.066592 -8.552726 -0.064403 -55.354612 0.872104 -40.806159 11.654594 -66.553254 13.123772 0.000000 0.000000 0.000000 1.184873 -0.489927 2.398011 4.791608 8.346618 5.647614 -0.642213 -2.665542 61.868181 11.192368 17.878684 -4.062231 0.000000 0.000000 0.000000 
0.292590 81.848885 -0.682669 0.000000 0.000000 0.000000 3.829598 -28.664463 1.494368 -18.288115 17.231801 10.981675 16.886270 13.515529 -1.096434 -1.559766 -3.866752 -5.142937 0.000000 0.000000 0.000000 3.829598 -28.664463 1.494368 -9.079137 -1.988782 -8.962216 10.902153 9.569509 0.791210 -5.876533 -0.805484 7.302360 0.000000 0.000000 0.000000 3.829598 -28.664463 1.494368 0.000000 0.000001 0.000000 7.716772 -0.237353 -2.624572 1.188277 -0.758154 2.332976 0.000000 0.000000 0.000000 1.201014 -0.474294 2.394906 -3.360431 19.121921 -7.250554 0.000000 0.000000 0.000000 1.201014 -0.474294 2.394906 -0.055081 -8.491721 -0.064848 -55.582273 1.027386 -40.891591 11.604252 -66.615183 13.052946 0.000000 0.000000 0.000000 1.201014 -0.474294 2.394906 4.796475 8.506327 5.607053 -0.601457 -2.772281 61.912660 11.204566 17.632029 -4.045791 0.000000 0.000000 0.000000 
0.263072 81.837555 -0.678099 0.000000 0.000000 0.000000 3.944665 -28.527001 1.531276 -18.427958 17.028123 10.999972 16.971499 13.556317 -1.145837 -1.578576 -3.847839 -5.153224 0.000000 0.000000 0.000000 3.944665 -28.527001 1.531276 -9.224509 -2.118746 -8.951948 11.036784 9.572387 0.802585 -5.963033 -0.796439 7.270514 0.000000 0.000000 0.000000 3.944665 -28.527001 1.531276 0.000000 0.000002 0.000000 7.676959 -0.221109 -2.606029 1.198235 -0.742672 2.317008 0.000000 0.000000 0.000000 1.210361 -0.460878 2.378696 -3.116961 19.501093 -7.500651 0.000000 0.000000 0.000000 1.210361 -0.460878 2.378696 -0.042201 -8.425472 -0.065375 -55.839901 1.199301 -41.001352 11.550172 -66.676423 12.978573 0.000000 0.000000 0.000000 1.210361 -0.460878 2.378696 4.769776 8.654981 5.546199 -0.515003 -2.889065 62.016656 11.182492 17.375817 -4.055861 0.000000 0.000000 0.000000 
0.230421 81.825188 -0.673178 0.000000 0.000000 0.000000 4.061948 -28.356845 1.573226 -18.568998 16.800664 11.012848 17.054622 13.580910 -1.210082 -1.593213 -3.835623 -5.154793 0.000000 0.000000 0.000000 4.061948 -28.356845 1.573226 -9.370062 -2.259086 -8.942780 11.190466 9.556848 0.795935 -6.078472 -0.806634 7.221436 0.000000 0.000000 0.000000 4.061948 -28.356845 1.573226 0.000000 -0.000001 0.000000 7.635115 -0.201052 -2.588702 1.207799 -0.723192 2.303694 0.000000 0.000000 0.000000 1.218413 -0.443152 2.365083 -2.817287 20.000539 -7.857018 0.000000 0.000000 0.000000 1.218413 -0.443152 2.365083 -0.028582 -8.354904 -0.065973 -56.118081 1.385372 -41.129497 11.492720 -66.737437 12.900888 0.000000 0.000000 0.000000 1.218413 -0.443152 2.365083 4.741567 8.761435 5.456697 -0.428009 -3.000603 62.144872 11.166891 17.119765 -4.061675 0.000000 0.000000 0.000000 
0.194389 81.811913 -0.667471 0.000000 0.000000 0.000000 4.181329 -28.150521 1.620912 -18.710682 16.549410 11.008707 17.130871 13.594529 -1.269950 -1.601500 -3.823170 -5.156126 0.000000 0.000000 0.000000 4.181329 -28.150521 1.620912 -9.531292 -2.422074 -8.944508 11.378602 9.563297 0.810052 -6.212810 -0.795989 7.163084 0.000000 0.000000 0.000000 4.181329 -28.150521 1.620912 0.000000 -0.000002 0.000000 7.591591 -0.184090 -2.572116 1.215882 -0.704541 2.292632 0.000000 0.000000 0.000000 1.226746 -0.426079 2.353584 -2.465277 20.617449 -8.315309 0.000000 0.000000 0.000000 1.226746 -0.426079 2.353584 -0.014419 -8.280700 -0.066602 -56.409436 1.581253 -41.269902 11.432215 -66.798246 12.820193 0.000000 0.000000 0.000000 1.226746 -0.426079 2.353584 4.729145 8.855328 5.342912 -0.353636 -3.115940 62.300532 11.130245 16.870685 -4.085534 0.000000 0.000000 0.000000 
